<?xml version="1.0" encoding="utf-8"?>
<!-- Generator: Adobe Illustrator 24.0.2, SVG Export Plug-In . SVG Version: 6.00 Build 0)  -->
<svg version="1.1" id="Layer_1" xmlns="http://www.w3.org/2000/svg" xmlns:xlink="http://www.w3.org/1999/xlink" x="0px" y="0px"
	 viewBox="0 0 1282 1135.9" style="enable-background:new 0 0 1282 1135.9;" xml:space="preserve">
<style type="text/css">
	.st0{fill:#E5E5E5;}
	.st1{fill:#999999;}
	.st2{fill:#E84430;}
	.st3{fill:#49A4D1;}
	.st4{font-family:'ArialMT';}
	.st5{font-size:22.102px;}
</style>
<rect x="129.4" y="406.8" class="st0" width="232" height="555.9"/>
<rect x="390.8" y="406.8" class="st1" width="232" height="555.9"/>
<rect x="656.5" y="406.8" class="st2" width="232" height="555.9"/>
<rect x="920.5" y="406.8" class="st3" width="232" height="555.9"/>
<text transform="matrix(1 0 0 1 130.7077 997.1962)" class="st4 st5">#E5E5E5</text>
<text transform="matrix(1 0 0 1 391.7858 997.1962)" class="st4 st5">#999999</text>
<text transform="matrix(1 0 0 1 652.8645 997.1962)" class="st4 st5">#E84430</text>
<text transform="matrix(1 0 0 1 913.9445 997.1962)" class="st4 st5">#49A4D1</text>
<path class="st3" d="M290.9,149.5h22.6l0.2,153.7h-15.9l-0.2-132.8h-0.4l-67.6,132.8H215l-67.8-133h-0.4l0.2,133h-15.9l-0.2-153.7
	H154l68.5,133.7L290.9,149.5z"/>
<path class="st3" d="M320.6,149.5h15.9l0.2,153.7h-15.9L320.6,149.5z"/>
<path class="st3" d="M344.8,149.5H364l107.4,131.3h0.4V149.5h15.9l0.2,153.7h-18.5L361.2,171.9h-0.4l0.2,131.3h-16L344.8,149.5z"/>
<path class="st3" d="M495.8,149.5H618v14.6H511.7v52.1h102.5v14.6H511.7v57.7h108.1l0.2,14.6H496L495.8,149.5z"/>
<path class="st3" d="M629.5,149.5h83.7c26,0,49.9,9.3,49.9,41.5c0,16.4-10.3,32.7-30.1,37.2v0.4c21.7,3.4,26.3,17.4,27.3,42.6
	c0.6,9.7,1.5,28.4,5.6,31.9h-17.2c-3.2-3.2-4.1-14.4-4.3-31.4c-0.6-27.1-10.5-36.2-37.2-36.2h-61.8l0.2,67.6h-15.9L629.5,149.5z
	 M645.4,220.9h67.4c17.4,0,33.1-6.5,33.1-29.9c0-22.4-17-26.9-31.6-26.9h-68.9V220.9z"/>
<path class="st3" d="M893.4,149.5h17.2l-67.8,153.7h-17.2l-68.7-153.7h18.3l59.4,135.6L893.4,149.5z"/>
<path class="st3" d="M969.7,256.4h-80.9l-20.7,46.7h-17.2l69.5-153.7h18.5l70,153.7h-18.5L969.7,256.4z M929.4,165.4l-34.2,76.4h68
	L929.4,165.4z"/>
<path class="st2" d="M1016.2,303.2L948,149.5h16.7l70,153.7"/>
<path class="st2" d="M1042.6,303.2l-68.1-153.7h16.7l70,153.7"/>
</svg>
